<svg fill="none" xmlns="http://www.w3.org/2000/svg" viewBox="0 0 237 237"><g clip-path="url(#a)"><path d="M25.014 126.159C-.4 100.745-.4 59.4 25.014 33.986 37.322 21.678 53.687 14.9 71.098 14.9c15.508 0 30.648 5.76 42.637 16.219l4.763 4.451 4.614-4.313C135.25 20.659 150.39 14.9 165.898 14.9c17.412 0 33.777 6.778 46.084 19.086 25.414 25.414 25.414 66.759 0 92.173l-93.483 93.485-93.485-93.485Z" fill="#FF877F"/><path d="M165.898 8.975c-17.024 0-33.91 6.324-47.399 18.478-13.494-12.154-30.376-18.478-47.4-18.478-18.198 0-36.392 6.94-50.276 20.824-27.764 27.765-27.764 72.783 0 100.551l97.676 97.675 97.675-97.675c27.768-27.768 27.768-72.782 0-100.55-13.884-13.885-32.078-20.825-50.276-20.825Zm41.898 112.997-89.297 89.293-89.298-89.293c-23.1-23.103-23.1-60.692 0-83.791 11.19-11.19 26.07-17.352 41.898-17.352 14.445 0 27.958 5.352 38.741 14.76l8.659 8.094 8.662-8.097c10.784-9.405 24.297-14.761 38.737-14.761 15.828 0 30.704 6.162 41.898 17.352 23.099 23.103 23.099 60.691 0 83.795Z" fill="#573A32"/></g><defs><clipPath id="a"><path fill="#fff" d="M0 0h237v237H0z"/></clipPath></defs></svg>