<svg fill="none" xmlns="http://www.w3.org/2000/svg" viewBox="0 0 113 99"><path d="M100.757 54.569c-2.24 2.144-5.82 4.917-8.076 6.335-2.563 1.612-6.061 3.724-9.705 5.69-.5.275-.693.92-.419 1.403 1.435 2.499 1.983 5.465 2.531 8.109.274 1.306.452 2.644.548 3.982 0 0 .387 6.222.742 11.59.58.597 1.402.903 2.498.049 2.402-1.886 3.063-.629 3.063-.629s.339.177.597-.177c.274-.355 1.144-.564 1.709.177.564.758 1.918.032 1.918.032s.661-.096 1.112 1.21c.242.693 1.048 1.096 1.741 1.305a1.986 1.986 0 0 1 1.355 1.693l.048.532c.048.774.097 1.628-.194 2.353a1.177 1.177 0 0 1-.612.694c-.161.08-.29.064-.468.064h-.548c-1.241.016-2.466 0-3.707 0H15.963c-.774 0-1.548 0-2.322.016-.435.016-.935-.032-1.225-.387-.21-.274-.322-.612-.37-.95-.13-.775-.065-1.58.016-2.354.08-.774.612-1.451 1.354-1.693.693-.226 1.499-.612 1.74-1.306.452-1.29 1.113-1.209 1.113-1.209s1.354.726 1.918-.032c.565-.758 1.451-.548 1.71-.177.273.354.596.177.596.177s.66-1.257 3.063.629c.838.66 1.515.628 2.047.322 1.08-3.53 1.273-11.703 1.435-13.267.37-3.579 1.434-7.657 2.998-10.704v-.016c.29-.565.08-1.274-.484-1.58a184.814 184.814 0 0 1-9.527-5.594c-2.24-1.419-5.835-4.192-8.076-6.336C7.274 50.055-1.786 37.255.309 35.03c0 0 19.7-1.354 38.787 22.086.903 1.112 2.483 1.45 3.772.822.451-.226.919-.435 1.37-.645a30.251 30.251 0 0 1 9.947-2.386c3.917-.258 7.867.21 11.607 1.435 1.354.452 2.692 1 3.965 1.628 1.29.645 2.87.307 3.789-.806 19.103-23.504 38.834-22.15 38.834-22.15 2.128 2.29-6.948 15.09-11.623 19.555Z" fill="#000"/><path d="M15.35 93.79c.323-2.144 1.129-1.483 1.612-.822a.475.475 0 0 0 .79-.032c1.258-2.047 1.725-1 1.854-.516a.4.4 0 0 0 .258.274c.161.049.322 0 .435-.129 1.774-2.289 2.047-.596 2.08.42 0 .241.274.37.483.241 1.951-1.338 1.484 2.24 1.484 2.24.983.178 1.563 1.258 1.853 1.984a.483.483 0 0 1-.451.66H13.464c-1.725-3.514 1.886-4.32 1.886-4.32Zm81.619 0c-.322-2.144-1.128-1.483-1.612-.822a.475.475 0 0 1-.79-.032c-1.257-2.047-1.725-1-1.854-.516a.4.4 0 0 1-.258.274.408.408 0 0 1-.435-.129c-1.773-2.289-2.047-.596-2.08.42 0 .241-.274.37-.483.241-1.95-1.338-1.483 2.24-1.483 2.24-.984.178-1.564 1.258-1.854 1.984a.483.483 0 0 0 .451.66h12.284c1.725-3.514-1.886-4.32-1.886-4.32Zm6.174-54.697c-.661 4.481-2.144 13.864-6.013 17.12-2.305 1.935-5.271 3.853-7.447 5.223-1.21.758-2.354 1.645-3.547 2.418-.645.42-1.322.806-2.015 1.145-.484.226-1.451.838-1.983.693-.21-.048-.387-.193-.564-.322-.177-.13-.371-.258-.58-.29-.371-.065-.516.16-.597.467-.097.387-.032.806.161 1.16 2.193 3.934 3.66 8.383 4.03 12.865.146 1.757-.064 3.498.033 5.24.096 1.66.241 3.32.628 4.932.097.42.21.838.339 1.241.064.21.355 1.177-.097 1.29a.518.518 0 0 1-.226-.016c-2.111-.564-3.981-1.177-6.11-.226-1.434.645-2.127 1.709-2.95 3.015-.306.5-.58 1.015-.822 1.547-.112.274-.21.549-.322.823-.016.064-.129.725-.129.725s-4.207.016-5.094.016c-1.741-.016-3.482-.016-5.223-.016-.951 0-1.902-.016-2.853-.016l.129-1.16h.112c1.29 0 2.725-.484 4.063-2 .129-.145.113-.37-.032-.516-.146-.129-.371-.112-.516.033-3.047 3.482-6.626.806-6.997.515-.274-.306-2.144-2.192-5.997.565-1.031.741-2.08 1.031-3.079.854-1.79-.322-2.95-1.999-2.966-2.015a.363.363 0 0 0-.5-.097.363.363 0 0 0-.096.5c.048.08 1.338 1.95 3.417 2.321.242.049.484.065.726.065.129 0 .241 0 .37-.016l.033.903c-1.113 0-2.225-.017-3.353-.033-2.37-.032-4.724-.08-7.093-.113-.903-.016-1.822-.048-2.709-.048.049-1.854-1.257-3.853-2.627-4.981-1.677-1.387-4.111-1.532-6.142-1.032-.468.113-1.741.87-2.096.322-.242-.386.532-1.112.645-1.467.725-2.289.854-4.852 1.096-7.222.322-3.175.193-6.335.758-9.479.241-1.338.612-2.676 1.16-3.917.274-.629.597-1.241.968-1.822.306-.483.693-.902.983-1.402.226-.355.903-1.773.032-1.822-.677-.032-.838.565-1.999.42-1.418-.178-2.82-1.08-3.982-1.854-1.16-.758-2.24-1.612-3.417-2.354-2.176-1.37-5.884-3.627-7.996-5.771-3.385-3.45-5.739-15.621-5.126-17.41 0 0 11.204-.29 29.049 20.827a3.084 3.084 0 0 0 3.692.774c.419-.21.854-.403 1.29-.596 3.046-1.306 7.93-2.273 11.235-2.483 3.789-.258 7.61.21 11.22 1.403 1.322.435 3.321 1.322 4.563 1.934 1.257.629 2.966-.419 3.836-1.5 12.607-15.717 23.472-19.586 27.502-20.44.79-.21 1.338.29 1.225 1.08Zm-58.034 44.01a5.649 5.649 0 0 0-5.642-5.643 5.649 5.649 0 0 0-5.643 5.642 5.648 5.648 0 0 0 5.643 5.643c3.11-.017 5.642-2.531 5.642-5.643Zm12.284 3.288h-2.644c-.645 0-1.032.71-.693 1.241l.612.984a1.737 1.737 0 0 0 2.79 0l.612-.984c.355-.532-.032-1.241-.677-1.241Zm21.166-3.289a5.648 5.648 0 0 0-5.642-5.642 5.648 5.648 0 0 0-5.642 5.642 5.648 5.648 0 0 0 5.642 5.643c3.127-.017 5.642-2.531 5.642-5.643Z" fill="#FCD20B"/><path d="M27.618 98.079s-1.95-1.564-1.741-3.757c0 0 7.657-5.303 10.237 3.773l-8.496-.016Zm56.954 0s1.95-1.564 1.741-3.757c0 0-7.657-5.303-10.236 3.773l8.495-.016Zm-23.44.16.033-.79a.576.576 0 0 0-.451-.596c-.645-.129-1.774-.467-2.37-1.241-.87-1.112-3.273-1.257-4.514.065a3.654 3.654 0 0 1-2.192 1.16.678.678 0 0 0-.58.677v.677l10.075.049Z" fill="#ED1C24"/><path d="M43.432 81.249c0 1.434-1.16 2.579-2.579 2.579a2.576 2.576 0 0 1-2.58-2.58c0-1.434 1.161-2.579 2.58-2.579s2.58 1.16 2.58 2.58Zm27.953-2.58a2.577 2.577 0 0 0-2.579 2.58c0 1.434 1.16 2.579 2.58 2.579 1.434 0 2.579-1.16 2.579-2.58 0-1.418-1.16-2.579-2.58-2.579Z" fill="#fff"/><path d="M43.078 84.392c0 .065.016.145.016.21a3.316 3.316 0 0 1-3.321 3.32 3.31 3.31 0 0 1-3.289-2.885c.87.242 1.951.354 3.096.274 1.37-.097 2.611-.435 3.498-.919Zm26.067 0c0 .065-.016.145-.016.21a3.316 3.316 0 0 0 3.32 3.32 3.31 3.31 0 0 0 3.29-2.885c-.871.242-1.951.354-3.096.274-1.37-.097-2.612-.435-3.498-.919Z" fill="#765241"/><g clip-path="url(#a)"><path d="m9 12.948 4.195 7.191 1.675-1.622-4.566-6.913L9 12.949Z" fill="url(#b)"/><path d="m71.287 7.297-.162.948 2.006-.657-.25-1.161-1.594.87Z" fill="#0071B9"/><path d="M59.596.824 53.14 8.34l1.879-.548L61.166 0l-1.57.824Z" fill="url(#c)"/><path d="m94.135 11.102 1.585-.857-.453 4.03-1.132-3.173ZM84.285 13.686l1.409.293 1.798-.886-1.56-.591-1.647 1.184Z" fill="#1D2C5E"/><path d="m35.72 9.408.225 4.67 1.966-.807-.588-4.736-1.603.873Z" fill="url(#d)"/><path d="m85.81 8.014-1.582.868.057 4.804 1.593-.829.5-2.325-.568-2.518Z" fill="url(#e)"/><path d="M85.593 13.993 83.85 29.709l2.785-.558.546-16.006-1.588.848Z" fill="#312370"/><path d="m89.003 30.462.05 2.131 5.347 1.73 1.591-.856-5.246-4.127-5.315-.474-1.58.843 5.153.753ZM69.168 26.713l1.314-.718.838 1.571 1.238-.691.246 2.071 7.774 1.4 1.553-.867-10.719-6.632-7.604 1.323-1.483 1.432 6.843 1.111Z" fill="#21386E"/><path d="m66.693 7.377-1.557.87-2.81 17.355 1.574-.831 2.698-9.744.095-7.65Z" fill="url(#f)"/><path d="m54.275 9.703-1.24.67.104.42 2.95-1.903-1.288-1.404-1.661.855 1.135 1.362Z" fill="#1D2C5E"/><path d="m57.664 30.203-12.676-6.376 1.591-1.221 12.663 6.732-1.578.865Z" fill="#21386E"/><path d="m46.18 6.474-1.922 3.699 2.03-.624 1.465-3.942-1.574.867Z" fill="#1D2C5E"/><path d="m28.755 21.755-1.62 1.13s.344 1.835.787 3.113c.446 1.281 1.507 2.311 1.507 2.311a5.8 5.8 0 0 0 2.45 1.445c1.792.524 3.815.183 5.552-.942.454-.292 1.07-.759 1.45-1.128-1.708 1.052-10.126-5.93-10.126-5.93Z" fill="url(#g)"/><path d="m37.429 13.697 1.479 16.568 6.043-.908 1.617-.86-7.5-15.794-1.543.528-1.58.846 1.484-.38Z" fill="#1D2C5E"/><path d="M14.773 19.451 21.525 35l6.415-2.101 1.566-1.07-13.314-14.144-1.666 1.014-1.33 1.44 1.577-.688Z" fill="url(#h)"/><path d="m81.69 26.787.091.763c.553-.063 1.133-.135 1.63-.315.579-.201 1.837-.77 2.315-1.189-.18.066-3.126.842-4.036.741ZM58.996 22.817l.24 1.229c1.299-.196 2.413-.684 3.509-1.353.687-.416 1.442-1.043 1.68-1.21-.168.11-5.43 1.334-5.43 1.334Z" fill="#1D2C5E"/><path d="m23.28 33.526-.5-1.131-6.403-14.508-.131-.297-.291.136-.194.09-1.14.569c-.168-.286-.447-.766-.641-1.099l-2.577-4.421-.674-1.155 1.115-.717a24.36 24.36 0 0 1 3.541-1.876c2.58-1.115 5.213-1.705 7.614-1.705.79 0 1.554.064 2.272.191 1.197.139 2.303.538 3.218 1.156a7.145 7.145 0 0 1 3.04 3.393c.498 1.167.595 2.534.28 3.951l-.187.833.682-.502c.459-.338.958-.627 1.482-.86a7.04 7.04 0 0 1 2.786-.587c.89 0 1.731.179 2.501.53l.496.226-.05-.55-.215-2.377-.035-.377-.362.096-1.084.285-.19-4.047 7.944-2.577-.064 3.145.598.156 1.735-3.376 5.197 4.68.216.195.212-.201a8.131 8.131 0 0 1 2.508-1.62l.397-.166-.272-.337-.937-1.16L61.133.53l3.124 4.733-4.783 2.61-1.062.581 1.206.026c2.268.048 4.276 1.022 5.653 2.742l.498.624.321.4-.533.575-.355.383-1.195 1.294-.223.241.24.22 1.12 1.024.434.396.093-.584.43-2.701.11-.694.003.004.113-.708.642-3.989h5.995l.046-.268.112-.683h5.157l1.25 8.012.08.519.42-.309a7.182 7.182 0 0 1 1.662-.912 6.778 6.778 0 0 1 2.43-.46c.973 0 1.917.228 2.734.66a.428.428 0 0 0 .094.053l.388.157.045-.422.094-.873.03-.286-.277-.063-1.046-.237-.05-4.177 7.973 1.782.599 3.006.619.012.618-2.586 6.648 1.641-6.794 20.793-4.862-1.55-.035-1.915-.005-.275-.268-.038-4.852-.695.275-2.504.065-.596-.525.273c-.248.129-.49.237-.717.322a6.719 6.719 0 0 1-2.414.458c-.234 0-.47-.013-.698-.039l-.415-.047.065.418.342 2.202-7.078-1.268-.371-3.268-.12-1.047-.476.936-.815 1.596-1.5-2.813-.452-.844-.142.949-.327 2.177-6.204-.992.482-2.987.11-.685-.587.356c-1.015.618-2.182 1.083-3.564 1.422-.483.12-.988.202-1.502.246l-.29.024v5.935l-12.218-6.13-.459-.23v.519l.009 5.244-5.463.817-.23-2.518-.061-.674-.476.474a7.813 7.813 0 0 1-2.417 1.653 6.947 6.947 0 0 1-2.764.586 5.895 5.895 0 0 1-2.6-.584c-1.473-.719-2.535-2.023-2.99-3.67a6.201 6.201 0 0 1-.175-2.427l.107-.893-.64.62c-.453.436-.94.852-1.45 1.234l-.172.13.054.21 1.84 7.172.326 1.273-1.232.397-3.465 1.127-1.16.379Zm1.556-19.253c-.179 0-.363.017-.55.05l-.235.047-.348.068.105.344.068.224.99 3.291.1.317.147.474.366-.33.243-.22c.96-.877 1.297-1.767 1.095-2.889-.128-.673-.642-1.008-.937-1.149a2.361 2.361 0 0 0-1.044-.227Zm26.558.108-.62.612-1.63 1.61-.355.35.462.18 1.75.686.537.21-.111-.573a7.727 7.727 0 0 1-.115-2.202l.082-.873Zm7.122-1.83c-.676 0-1.33.295-1.796.81a2.517 2.517 0 0 0-.34 2.87l.132.253.214.405.301-.342.194-.218 2.392-2.774.188-.22.302-.351-.43-.162-.269-.1a2.406 2.406 0 0 0-.888-.171Z" fill="#FFCB05"/><path d="M62.176 16.659a.395.395 0 0 0-.063.073c.024-.022.048-.041.072-.062l-.01-.011ZM64.238 14.719l1.195-1.294-.409.44.012-.055-.361.387-1.194 1.29 1.118 1.022.203-1.273.557.506-1.12-1.023Z" fill="#7D7F68"/><path d="m64.238 14.719 1.12 1.024.43-2.702-.355.384-1.195 1.294ZM49.365 16.832l.019.008-.019-.008Z" fill="#7D7F68"/><path d="M55.98 17.956c.096.098.007.027.114.102l.731-.523a3.004 3.004 0 0 1-.315-.255c-1.06-.981-.784-3.188-.096-4.396-1.811 1.483-1.717 3.767-.434 5.072" fill="#C7A008"/><path d="M64.802 19.191c-1.207 1.014-2.583 1.675-4.4 2.12-.398.093-.787.16-1.168.195-2.885.288-5.306-1.058-6.224-3.24a4.75 4.75 0 0 1-.27-.817c-.425-1.837-.062-3.48.832-4.767.089-.124.182-.244.28-.365-.046.04-.093.074-.13.11a5.99 5.99 0 0 0-.907 1.024c-.895 1.287-1.258 2.93-.83 4.765.066.285.153.557.265.815.92 2.187 3.34 3.531 6.223 3.245a8.277 8.277 0 0 0 1.17-.199c1.82-.446 3.194-1.104 4.401-2.118.295-.246.58-.514.855-.808l-.025-.025c-.028.024-.048.045-.072.065M44.469 13.636l3.223-4.6-.13-.122-3.11 4.436.017.286ZM65.788 13.041l-.43 2.701-.556-.506-.203 1.273-1.118-1.022 1.194-1.29.361-.387-.012.055.409-.44.355-.384ZM61.804 5.465l1.13-.492-2.064-2.688-.676.958 1.61 2.222ZM30.553 12.126c-5.21-6.445-14.599-2.98-17.973.034l.132.231c.776-.452 1.594-.86 2.454-1.227 3.352-1.454 6.547-1.88 9.11-1.425.905.106 1.864.379 2.699.946 1.155.657 2.031 1.592 2.543 2.79.91 2.122.109 4.943-2.032 7.304 2.685-2.5 4.521-4.893 3.067-8.653ZM41.182 19.634c-.024-.117-.048-.235-.086-.35a4.408 4.408 0 0 0-1.75-2.496c-1.337-.922-3.204-1.111-5.065-.314a7.016 7.016 0 0 0-2.503 1.881 6.848 6.848 0 0 1 1.748-1.109c1.856-.8 3.723-.611 5.065.31.826.57 1.451 1.425 1.751 2.495a5.258 5.258 0 0 1 .186 1.597c-.039 1.234-.49 2.476-1.238 3.536-.12.168-.248.325-.38.48a7.05 7.05 0 0 0 1.133-1.25c.752-1.054 1.201-2.298 1.24-3.54a5.112 5.112 0 0 0-.1-1.24Z" fill="#C7A008"/><path d="M36.052 18.061c-.007.012.756-.767.747-.767-.955-.037-1.358.877-1.391.949.196-.097.412-.16.644-.182M37.85 19.179a1.405 1.405 0 0 1-.066.98c.153-.082 1.257-.625.83-1.777.022.035-.791.793-.764.797ZM33.507 19.82c0-.474.8-1.624 1.049-2.007-1.262.814-1.806 1.914-1.806 2.78 0 1.484 1.284 2.677 2.82 2.677.726 0 2.056-.39 2.926-1.82-.456.305-1.615 1.034-2.223 1.034-1.535 0-2.766-1.172-2.766-2.664ZM44.311 21.178l.02 6.005.939.055-.186-6.846-.773.786ZM38.923 9.744l.02.534 4.448-1.345.33 5.752.742-1.056-.158-5.772-5.382 1.887ZM52.371 11.804 48.193 7.91l-.5 1.127 3.677 3.508 1.001-.74ZM51.736 19.061l-4.906-1.647-.715.766 4.888 1.986a6.878 6.878 0 0 0 2.452 2.634 7.938 7.938 0 0 0 3.433 1.137v2.451l.757.384.24-3.682-6.149-4.029ZM59.614 18.368c1.205-.295 1.9-.933 2.498-1.636-.449.375-2.7.873-3.078 1.003l-.74.801c.338.03.904-.062 1.32-.168ZM57.423 9.897c-2.222.296-3.38 2.19-3.571 2.42.82-.704 1.849-1.226 3.007-1.504 2.749-.675 5.173.176 6.671 2.056l.927-.796c-1.484-1.849-4.286-2.849-7.034-2.176M64.874 19.126c.268-.229.744-.46.998-.73l-2.975-2.699c-.228.277-.435.733-.713.973l2.69 2.456ZM80.14 26.359c-3.12-2.605-2.934-8.19-1.402-9.962l-1.375-8.754-3.007.394-.134.77h2.275l1.206 7.943c-1.534 1.778-2.275 4.16-1.762 6.34.396 1.685 1.415 3.049 2.883 3.838.147.082.3.153.456.221l.02.117.894.143s.093-.974-.053-1.05ZM68.145 8.93l-.13.772h3.43l1.011 5.625.761-.78-.8-5.939-4.272.323ZM74.017 19.85l-1.107 2.906.274.756 1.584-4.425-.75.764ZM70.728 18.021l-.762.773-.818 5.247.783.304.797-6.324ZM86.135 16.345c.45.326.832.737 1.12 1.227.228.376.4.797.51 1.259.373 1.577-.074 3.283-1.061 4.652-.1.138-.21.273-.314.404.401-.35 5.274-4 .513-8.792-5.236-1.753-7.218 1.716-7.403 1.936a6.502 6.502 0 0 1 1.883-1.141c1.772-.682 3.516-.445 4.752.455" fill="#C7A008"/><path d="M83.496 16.69c.014.034.751-.78.766-.78-.931.04-1.379.496-1.333.707a1.278 1.278 0 0 0-.137.252c.2-.1.567-.177.704-.178ZM85.248 17.88c.033.127.05.26.046.402-.008.183-.055.35-.123.507.141-.065 1.27-.421.84-1.683.01.036-.776.774-.763.774M82.774 21.886c1.054.045 2.22-.612 3.055-1.774-2.145.447-4.4-3.18-4.173-3.534-.81.596-1.528 1.747-1.56 2.55-.056 1.491 1.14 2.695 2.678 2.758ZM94.526 31.334l.503.341 6.135-18.696-4.591-1.077-.058 1.095 3.704.834-5.692 17.503ZM87.24 9.897l.04 1.045 4.882.995 1.88 9.051.76-.778-1.79-9.144-5.772-1.169ZM90.997 20.211l-1.344 7.72.774.254 1.335-8.734-.765.76ZM27.643 30.762l-2.283-8.406-.836.594 2.116 8.053 1.003-.24ZM27.05 18.122c-.526.567-1.694 1.67-2.359 2.105l-.404-1.317-.884-2.888-.563-1.955-.548.716.56 1.957.884 2.886.403 1.32c.91-.595 2.235-1.714 2.912-2.824" fill="#C7A008"/><path d="M59.406 13.151c-.72-.281-1.742-.197-2.293.416a4.211 4.211 0 0 0-.456.666c.534-.43 1.484-.524 2.106-.296l.643-.786ZM26.392 15.76c-.081-.433-.498-.776-.702-.871-.366-.18-.998-.207-1.46-.122l.218.773c.188.026.495.083.657.158.203.099.557.332.64.767.11.58.08 1.124-.158 1.564.654-.65.97-1.359.805-2.27" fill="#7D7F68"/><path d="M27.536 15.747c-.314-1.708-2.514-2.65-4.696-1.442l.563 1.956.884 2.89.404 1.316c1.637-1.069 3.282-2.353 2.845-4.72Zm-2.167 2.628c-.238-.79-.76-2.494-.76-2.494.002.007-.104-.365-.229-.792.463-.084.907-.05 1.273.129.204.099.564.33.642.766.18.983-.145 1.684-.926 2.39Z" fill="#3C5AA6"/><path d="M60.548 13.036a2.958 2.958 0 0 0-4.227.19 3.066 3.066 0 0 0 .505 4.547l3.933-4.523a4.398 4.398 0 0 0-.211-.214Zm-3.714 3.182a1.983 1.983 0 0 1 .268-2.266 1.915 1.915 0 0 1 2.123-.503l-2.391 2.77Z" fill="#3567B0"/><path d="m65.804 12.54-2.178 2.131 2.07 1.887.108-4.018Z" fill="#1E2D5F"/><path d="M86.004 17.106c.033.134.05.267.046.409-.036.845-.818 1.497-1.751 1.453-.932-.033-1.664-.751-1.628-1.594.032-.79.725-1.416 1.582-1.456a2.723 2.723 0 0 0-.51-.063c-1.56-.068-2.836 1.054-2.89 2.45-.06 1.495 1.12 2.713 2.656 2.78 1.562.064 2.837-1.062 2.899-2.549a2.474 2.474 0 0 0-.404-1.43Z" fill="#3466AF"/><path d="M38.67 18.812c0 .849-.76 1.529-1.692 1.529-.933 0-1.69-.68-1.69-1.529 0-.79.666-1.443 1.52-1.518a2.813 2.813 0 0 0-.51-.048c-1.56 0-2.79 1.175-2.79 2.574 0 1.493 1.23 2.664 2.765 2.664 1.561 0 2.79-1.172 2.79-2.664 0-.517-.167-1.004-.456-1.405.039.121.062.255.062.397" fill="url(#i)"/><path d="m95.71 10.24-.693 2.9-.64-3.21-8.567-1.915.06 4.837 1.29.294-.092.872c-.017-.007-.028-.017-.037-.024-1.6-.858-3.584-.946-5.452-.23a7.482 7.482 0 0 0-1.735.953l-1.292-8.284h-5.698l-.157.952H66.7l-.684 4.259-.498-.624c-1.453-1.813-3.56-2.811-5.893-2.861l5.091-2.779L61.166 0 54.75 7.506l1.107 1.37a8.441 8.441 0 0 0-2.605 1.683l-5.5-4.954-1.923 3.742.074-3.597-8.6 2.79.221 4.69 1.463-.385.217 2.378c-1.672-.762-3.681-.744-5.545.056a8.186 8.186 0 0 0-1.541.894c.322-1.448.246-2.876-.298-4.15a7.43 7.43 0 0 0-3.156-3.532c-.97-.657-2.128-1.066-3.339-1.205-2.975-.529-6.549.014-10.065 1.535a24.663 24.663 0 0 0-3.586 1.899l-1.375.885.83 1.424 2.576 4.421s.789 1.355.794 1.354l1.393-.695.195-.09 6.402 14.508.617 1.394 1.43-.467L28 32.327l1.518-.49-.4-1.57-1.84-7.17c.529-.398 1.023-.82 1.479-1.261a6.564 6.564 0 0 0 .183 2.554c.481 1.739 1.602 3.112 3.158 3.873 1.68.82 3.73.822 5.627.005a8.178 8.178 0 0 0 2.514-1.72l.261 2.857 6.067-.907-.01-5.524 12.676 6.362v-6.16a9.868 9.868 0 0 0 1.55-.254c1.395-.343 2.59-.812 3.652-1.458l-.533 3.308 6.835 1.092.375-2.497 1.785 3.348 1.09-2.135.4 3.505 7.748 1.387-.41-2.647a6.919 6.919 0 0 0 3.258-.436c.256-.096.508-.213.75-.338l-.309 2.816 5.158.739.038 2.147 5.378 1.714L103 12.04l-7.29-1.8Zm-30.277 3.185.355-.384-.429 2.702-1.12-1.024 1.194-1.294ZM60.892 2.389l1.877 2.59-5.367 2.702-.371-.572 3.86-4.72ZM25.35 22.36 27.49 30.7l-3.466 1.125-7.112-16.128c-.387.206-1.102.552-1.758.879l-2.575-4.418a22.307 22.307 0 0 1 3.342-1.765c3.353-1.448 6.552-1.88 9.11-1.421.906.103 1.864.374 2.704.94 1.151.659 2.032 1.596 2.54 2.79 1.239 2.906-.83 7.089-4.926 9.655Zm15.935-1.486c-.04 1.243-.49 2.487-1.241 3.54a6.965 6.965 0 0 1-2.891 2.373c-3.007 1.294-6.014 0-6.818-2.899-.778-2.803 1.033-6.14 3.947-7.413 1.86-.798 3.727-.609 5.065.314a4.409 4.409 0 0 1 1.75 2.496c.037.114.061.233.086.35.084.408.118.827.102 1.24Zm16.36 5.899-12.577-6.387.022 6.692-3.253.45-.227-2.758c1.005-1.75 1.372-3.81.848-5.7a6.003 6.003 0 0 0-1.542-2.663l-.467-5.625-1.46.385-.065-1.422 5.225-1.58.32 5.472 3.849-5.492 3.763 3.64-5.262 5.628 4.943 1.986a6.852 6.852 0 0 0 2.452 2.63c1.022.64 2.192 1.02 3.43 1.144l.001 3.6Zm-6.53-9.254-1.75-.685 1.631-1.61a8.054 8.054 0 0 0 .119 2.295Zm13.687 1.673c-1.207 1.014-2.583 1.675-4.4 2.12-.398.093-.787.16-1.168.195-2.885.288-5.306-1.058-6.224-3.24a4.74 4.74 0 0 1-.27-.817c-.425-1.837-.062-3.48.832-4.767.258-.375.563-.717.907-1.025.842-.763 1.917-1.318 3.14-1.616 2.748-.673 5.168.179 6.652 2.028l-5.237 5.66c.355.068.92-.026 1.336-.128 1.248-.309 1.946-.98 2.56-1.713l2.094 1.912.634.581c-.275.289-.564.561-.856.81Zm11.111 7.554-1.139-7.663-1.611 4.228-2.413-5.284h-.027l-.953 6.119-4.021-.71.565-3.415c.152-.145.301-.29.448-.444l1.303-1.362-1.266-1.152 1.345-8.132h4.057l1.016 5.63 1.138-6.524h2.902l1.204 7.948c-1.532 1.772-2.277 4.155-1.765 6.335.396 1.69 1.419 3.05 2.885 3.845.148.076.3.15.458.215l.154 1.03-4.28-.664Zm10.02-2.496a6.22 6.22 0 0 1-1.455.79c-1.036.4-2.066.483-2.984.298a4.418 4.418 0 0 1-1.73-.748c-.808-.593-1.402-1.469-1.664-2.568-.306-1.321-.024-2.732.676-3.967a7.11 7.11 0 0 1 1.326-1.66 6.595 6.595 0 0 1 2.037-1.276c1.773-.672 3.522-.44 4.753.459.452.326.828.74 1.124 1.222.225.381.4.8.505 1.26.377 1.585-.072 3.284-1.057 4.653a6.857 6.857 0 0 1-1.53 1.537Zm9.055 7.223-2.974-.9-.259-11.131-1.495 8.587-3.244-.526.232-2.472c2.118-1.818 3.241-4.684 2.626-7.282a5.732 5.732 0 0 0-1.674-2.914l.273-2.916-1.226-.331.082-1.557 5.589 1.14 1.879 9.049 1.927-8.112 4.252.953-5.988 18.411Z" fill="url(#j)"/><path d="M97.431 32.526v-.84h-.31v-.112h.745v.112h-.31v.84h-.125ZM97.99 32.526v-.952h.187l.222.674.045.141c.01-.034.027-.085.05-.153l.224-.662h.167v.952h-.12v-.797l-.272.797h-.112l-.271-.81v.81h-.12Z" fill="#000"/></g><defs><linearGradient id="b" x1="13.639" y1="18.958" x2="10.062" y2="12.391" gradientUnits="userSpaceOnUse"><stop stop-color="#0070B6"/><stop offset="1" stop-color="#1D2C5E"/></linearGradient><linearGradient id="c" x1="56.259" y1="5.45" x2="60.767" y2=".693" gradientUnits="userSpaceOnUse"><stop stop-color="#0070B6"/><stop offset="1" stop-color="#1D2C5E"/></linearGradient><linearGradient id="d" x1="36.907" y1="13.495" x2="36.362" y2="8.985" gradientUnits="userSpaceOnUse"><stop stop-color="#0070B6"/><stop offset="1" stop-color="#1D2C5E"/></linearGradient><linearGradient id="e" x1="85.359" y1="12.627" x2="85.141" y2="8.554" gradientUnits="userSpaceOnUse"><stop stop-color="#125D9E"/><stop offset="1" stop-color="#1D2C5E"/></linearGradient><linearGradient id="f" x1="70.555" y1="6.756" x2="65.798" y2="14.21" gradientUnits="userSpaceOnUse"><stop stop-color="#125D9E"/><stop offset="1" stop-color="#1D2C5E"/></linearGradient><linearGradient id="g" x1="29.361" y1="18.816" x2="32.613" y2="25.114" gradientUnits="userSpaceOnUse"><stop stop-color="#105FA1"/><stop offset="1" stop-color="#1D2C5E"/></linearGradient><linearGradient id="h" x1="17.386" y1="16.653" x2="21.155" y2="25.257" gradientUnits="userSpaceOnUse"><stop stop-color="#105FA1"/><stop offset="1" stop-color="#1D2C5E"/></linearGradient><linearGradient id="i" x1="33.507" y1="19.865" x2="39.064" y2="19.865" gradientUnits="userSpaceOnUse"><stop stop-color="#3C5AA6"/><stop offset=".933" stop-color="#2B73B9"/><stop offset="1" stop-color="#2A75BB"/></linearGradient><linearGradient id="j" x1="10.3" y1="16.961" x2="103" y2="16.961" gradientUnits="userSpaceOnUse"><stop stop-color="#3C5AA6"/><stop offset=".933" stop-color="#2B73B9"/><stop offset="1" stop-color="#2A75BB"/></linearGradient><clipPath id="a"><path fill="#fff" transform="translate(9)" d="M0 0h94v35H0z"/></clipPath></defs></svg>